<svg width="44" height="40" viewBox="0 0 44 40" fill="none" xmlns="http://www.w3.org/2000/svg">
  <path d="M39.1111 0H4.88889C2.17556 0 0 2.24297 0 4.98437V34.8906C0 37.632 2.17556 39.875 4.88889 39.875H39.1111C41.8 39.875 44 37.632 44 34.8906V4.98437C44 2.24297 41.8244 0 39.1111 0ZM39.1111 34.8906H4.88889V9.96875H39.1111V34.8906Z" fill="black" />
  <path d="M4.88889 39.875L39.1111 39.875C41.8244 39.875 44 37.632 44 34.8906L44 4.98438C44 2.24297 41.8244 3.6245e-06 39.1111 3.3873e-06L4.88889 3.95495e-07C2.2 1.60425e-07 3.2899e-06 2.24297 3.05023e-06 4.98437L4.35748e-07 34.8906C1.96087e-07 37.632 2.17556 39.875 4.88889 39.875ZM4.88889 4.98438L39.1111 4.98438L39.1111 29.9063L4.88889 29.9062L4.88889 4.98438Z" fill="black" />
</svg>